<svg xmlns="http://www.w3.org/2000/svg" viewBox="0 0 300 200">
  <!-- Background -->
  <rect width="300" height="200" fill="#ffffff"/>
  <!-- Subtle border -->
  <rect x="1" y="1" width="298" height="198" fill="none" stroke="#f1f5f9" stroke-width="2"/>
  <!-- Header -->
  <rect x="20" y="15" width="260" height="35" rx="4" fill="#f8fafc" stroke="#e2e8f0" stroke-width="1"/>
  <rect x="30" y="25" width="80" height="8" rx="2" fill="#1e293b"/>
  <rect x="30" y="37" width="50" height="6" rx="2" fill="#94a3b8"/>
  <!-- Event Card -->
  <rect x="20" y="60" width="260" height="120" rx="6" fill="#fff" stroke="#e2e8f0" stroke-width="1"/>
  <!-- Image placeholder -->
  <rect x="30" y="70" width="90" height="60" rx="4" fill="#f8fafc" stroke="#e2e8f0" stroke-width="1"/>
  <circle cx="75" cy="100" r="15" fill="#cbd5e1" opacity="0.5"/>
  <!-- Content -->
  <rect x="130" y="75" width="100" height="10" rx="2" fill="#1e293b"/>
  <rect x="130" y="92" width="70" height="6" rx="2" fill="#64748b"/>
  <rect x="130" y="105" width="80" height="6" rx="2" fill="#94a3b8"/>
  <rect x="130" y="118" width="60" height="6" rx="2" fill="#94a3b8"/>
  <!-- Button -->
  <rect x="30" y="145" width="70" height="25" rx="4" fill="#1e293b"/>
  <rect x="45" y="155" width="40" height="6" rx="2" fill="#fff"/>
</svg>
